<?xml version="1.0" encoding="utf-8"?>
<!-- Generator: Adobe Illustrator 26.3.1, SVG Export Plug-In . SVG Version: 6.00 Build 0)  -->
<svg version="1.1" id="Layer_1" xmlns="http://www.w3.org/2000/svg" xmlns:xlink="http://www.w3.org/1999/xlink" x="0px" y="0px"
	 viewBox="0 0 48 48" style="enable-background:new 0 0 48 48;" xml:space="preserve">
<style type="text/css">
	.st0{fill:#555555;stroke:#555555;stroke-width:1.5;stroke-linecap:round;stroke-linejoin:round;stroke-miterlimit:10;}
</style>
<g>
	<path d="M39.62,15.15c-0.18-0.05-0.37-0.07-0.57-0.07c-0.24,0-0.47,0-0.71,0c-0.8,0-1.59,0-2.39,0c-1.12,0-2.25,0-3.37,0
		c-1.32,0-2.64,0-3.96,0c-1.39,0-2.77,0-4.16,0c-1.32,0-2.65,0-3.97,0c-1.13,0-2.26,0-3.39,0c-0.81,0-1.62,0-2.43,0
		c-0.36,0-0.72,0-1.09,0c0,0-1.82-3.47-1.82-3.47c-0.02-0.03-0.05-0.05-0.07-0.08c-0.03-0.04-0.06-0.09-0.1-0.12
		c-0.04-0.03-0.08-0.06-0.12-0.08c-0.04-0.02-0.08-0.05-0.12-0.07c-0.05-0.02-0.1-0.02-0.15-0.03c-0.04-0.01-0.07-0.02-0.1-0.02
		H6.98c-0.41,0-0.75,0.34-0.75,0.75s0.34,0.75,0.75,0.75h3.66l8.82,16.85c0.13,0.25,0.39,0.4,0.66,0.4h6.41h1.88h6.41
		c0.28,0,0.53-0.15,0.66-0.4c0.28-0.53,0.57-1.06,0.85-1.59c0.64-1.2,1.28-2.41,1.93-3.61c0.69-1.29,1.38-2.58,2.06-3.87
		c0.25-0.48,0.51-0.96,0.76-1.43c0.27-0.5,0.66-1.02,0.66-1.61c-0.01-0.58-0.38-1.13-0.79-1.51C40.57,15.57,40.13,15.28,39.62,15.15
		z M34.39,28.46c0,0-5.96,0-5.96,0h-1.88h-5.96c0,0-6.22-11.88-6.22-11.88c0.07,0,0.15,0,0.22,0c0.21,0,0.43,0,0.64,0
		c0.33,0,0.67,0,1,0c0.44,0,0.87,0,1.31,0c0.52,0,1.05,0,1.57,0c0.59,0,1.18,0,1.77,0c0.64,0,1.29,0,1.93,0c0.68,0,1.35,0,2.03,0
		c0.69,0,1.39,0,2.08,0c0.69,0,1.38,0,2.08,0c0.67,0,1.35,0,2.02,0c0.64,0,1.28,0,1.91,0c0.58,0,1.17,0,1.75,0c0.51,0,1.03,0,1.54,0
		c0.43,0,0.85,0,1.28,0c0.32,0,0.64,0,0.96,0c0.2,0,0.4,0,0.59,0c0.29,0,0.56,0.18,0.78,0.36c0.18,0.14,0.48,0.35,0.39,0.62
		c-0.05,0.15-0.15,0.27-0.23,0.4c-0.08,0.15-0.16,0.31-0.25,0.46c-0.24,0.46-0.49,0.91-0.73,1.37c-0.31,0.58-0.61,1.15-0.92,1.73
		c-0.33,0.63-0.67,1.25-1,1.88c-0.33,0.61-0.65,1.22-0.98,1.84c-0.28,0.53-0.57,1.06-0.85,1.59c-0.2,0.38-0.41,0.76-0.61,1.14
		C34.57,28.13,34.49,28.29,34.39,28.46z"/>
	<g>
		<path d="M21.2,37.54c-1.52,0-2.75-1.23-2.75-2.75s1.23-2.75,2.75-2.75s2.75,1.23,2.75,2.75S22.72,37.54,21.2,37.54z M21.2,33.54
			c-0.69,0-1.25,0.56-1.25,1.25s0.56,1.25,1.25,1.25s1.25-0.56,1.25-1.25S21.89,33.54,21.2,33.54z"/>
	</g>
	<g>
		<path d="M33.48,37.54c-1.52,0-2.75-1.23-2.75-2.75s1.23-2.75,2.75-2.75s2.75,1.23,2.75,2.75S35,37.54,33.48,37.54z M33.48,33.54
			c-0.69,0-1.25,0.56-1.25,1.25s0.56,1.25,1.25,1.25s1.25-0.56,1.25-1.25S34.17,33.54,33.48,33.54z"/>
	</g>
</g>
</svg>
