<?xml version="1.0" encoding="UTF-8"?>
<svg width="24px" height="24px" viewBox="0 0 24 24" version="1.1" xmlns="http://www.w3.org/2000/svg" xmlns:xlink="http://www.w3.org/1999/xlink">
    <title>큰놈</title>
    <g id="Page-1" stroke="none" stroke-width="1" fill="none" fill-rule="evenodd">
        <g id="03-01_밴드배송(2열)" transform="translate(-135.000000, -1230.000000)">
            <g id="큰놈" transform="translate(135.000000, 1230.000000)">
                <rect id="Rectangle" x="0" y="0" width="24" height="24"></rect>
                <g id="Group" transform="translate(0.500000, 1.500000)">
                    <rect id="Rectangle-Copy-6" x="0" y="0" width="22" height="22"></rect>
                    <g id="Group-9" transform="translate(0.687500, 3.437042)" stroke="#00AAFF" stroke-width="1.4">
                        <path d="M0,0 L1.31541667,0 C2.09,0 2.77475,0.50325 3.00758333,1.24116667 L5.643,9.60575 C5.87583333,10.3445833 6.56058333,10.8469167 7.33516667,10.8469167 L16.8510833,10.8469167" id="Stroke-1" stroke-linecap="round"></path>
                        <path d="M7.42243333,10.8514083 L16.5652667,10.8514083 C17.3416833,10.8514083 18.02735,10.346325 18.2592667,9.606575 L20.1402667,3.600575 C20.2869333,3.13215833 20.0256833,2.63440833 19.5581833,2.48865833 C19.4729333,2.462075 19.3831,2.448325 19.2941833,2.448325 L3.40743333,2.448325" id="Stroke-3" stroke-linecap="round"></path>
                        <path d="M8.98315,14.7132333 L8.98315,14.7132333 C9.5909,14.7132333 10.08315,15.2054833 10.08315,15.8123167 C10.08315,16.4200667 9.5909,16.9123167 8.98315,16.9123167 C8.3754,16.9123167 7.88315,16.4200667 7.88315,15.8123167 C7.88315,15.2054833 8.3754,14.7132333 8.98315,14.7132333 Z" id="Stroke-5"></path>
                        <path d="M15.85815,14.7132333 L15.85815,14.7132333 C16.4659,14.7132333 16.95815,15.2054833 16.95815,15.8123167 C16.95815,16.4200667 16.4659,16.9123167 15.85815,16.9123167 C15.2504,16.9123167 14.75815,16.4200667 14.75815,15.8123167 C14.75815,15.2054833 15.2504,14.7132333 15.85815,14.7132333 Z" id="Stroke-7"></path>
                    </g>
                </g>
            </g>
        </g>
    </g>
</svg>